<?xml version="1.0" encoding="UTF-8" standalone="no"?>
<!-- Created with Inkscape (http://www.inkscape.org/) -->

<svg
   width="122.32415mm"
   height="26.276432mm"
   viewBox="0 0 122.32415 26.276432"
   version="1.1"
   id="svg1"
   xml:space="preserve"
   xmlns="http://www.w3.org/2000/svg"
   xmlns:svg="http://www.w3.org/2000/svg"><defs
     id="defs1" /><g
     id="layer1"
     transform="translate(-75.549658,-101.41334)"><g
       id="g32"
       transform="matrix(0.35277778,0,0,0.35277778,67.98172,47.378856)"><g
         id="g35"><g
           id="g34"><g
             fill="#1b1b1b"
             fill-opacity="1"
             id="g19"><g
               transform="translate(20.733668,210.528)"
               id="g18"><g
                 id="g17"><path
                   d="m 18.875,-36.5625 c 1.925781,0 3.738281,0.453125 5.4375,1.359375 0.96875,0.429687 1.632812,0.640625 2,0.640625 1.019531,0 1.847656,-0.664062 2.484375,-2 h 1.4375 l -2.15625,12.15625 h -1.4375 c 0,-3.457031 -0.683594,-6.066406 -2.046875,-7.828125 -1.355469,-1.757813 -3.023438,-2.640625 -5,-2.640625 -1.4375,0 -2.625,0.453125 -3.5625,1.359375 -0.929688,0.90625 -1.390625,1.917969 -1.390625,3.03125 0,1.28125 0.367187,2.578125 1.109375,3.890625 0.75,1.304688 1.925781,3.023438 3.53125,5.15625 1.8125,2.34375 3.195312,4.398438 4.15625,6.15625 0.957031,1.761719 1.4375,3.601562 1.4375,5.515625 0,1.8125 -0.496094,3.539063 -1.484375,5.171875 -0.980469,1.625 -2.375,2.960938 -4.1875,4 -1.8125,1.03125 -3.921875,1.546875 -6.328125,1.546875 -1.386719,0 -3.0625,-0.34375 -5.03125,-1.03125 C 6.457031,-0.503906 5.550781,-0.71875 5.125,-0.71875 c -1.023438,0 -1.929688,0.558594 -2.71875,1.671875 H 0.71875 L 3.046875,-11.84375 h 1.59375 C 4.847656,-8.644531 5.5,-5.988281 6.59375,-3.875 c 1.09375,2.105469 3.132812,3.15625 6.125,3.15625 2.082031,0 3.707031,-0.703125 4.875,-2.109375 1.175781,-1.414063 1.765625,-2.898437 1.765625,-4.453125 0,-1.113281 -0.324219,-2.269531 -0.96875,-3.46875 -0.636719,-1.207031 -1.355469,-2.394531 -2.15625,-3.5625 -0.792969,-1.175781 -1.324219,-1.953125 -1.59375,-2.328125 L 13.4375,-18.40625 c -1.386719,-1.914062 -2.414062,-3.566406 -3.078125,-4.953125 -0.667969,-1.382813 -1,-2.878906 -1,-4.484375 0,-1.914062 0.503906,-3.523438 1.515625,-4.828125 1.019531,-1.3125 2.273438,-2.285156 3.765625,-2.921875 1.488281,-0.644531 2.898437,-0.96875 4.234375,-0.96875 z m 0,0"
                   id="path16" /></g></g></g></g><g
           id="g33"><g
             fill="#1b1b1b"
             fill-opacity="1"
             id="g4"><g
               transform="translate(179.19994,211.01767)"
               id="g3"><g
                 id="g2"><path
                   d="M 3.640625,-49 H 19.875 l 9.59375,27.796875 H 29.6875 L 39.265625,-49 h 16.25 V 0 h -10.71875 v -33.59375 h -0.28125 L 33.046875,0 h -6.9375 L 14.625,-33.59375 H 14.34375 V 0 H 3.640625 Z m 0,0"
                   id="path1" /></g></g></g><g
             fill="#1b1b1b"
             fill-opacity="1"
             id="g7"><g
               transform="translate(232.74671,211.01767)"
               id="g6"><g
                 id="g5"><path
                   d="m 16.59375,0.625 c -4.574219,0 -8.109375,-1.734375 -10.609375,-5.203125 -2.5,-3.476563 -3.75,-8.132813 -3.75,-13.96875 0,-5.882813 1.28125,-10.5625 3.84375,-14.03125 2.570313,-3.476563 6.125,-5.21875 10.65625,-5.21875 3.125,0 5.523437,0.6875 7.203125,2.0625 1.675781,1.375 2.84375,2.765625 3.5,4.171875 H 28 v -5.46875 H 38.984375 V 0 H 28 v -5.953125 h -0.5625 c -0.699219,1.5 -1.902344,2.976563 -3.609375,4.421875 C 22.128906,-0.09375 19.71875,0.625 16.59375,0.625 Z m 4.125,-8.75 c 2.476562,0 4.320312,-1.035156 5.53125,-3.109375 1.207031,-2.070313 1.8125,-4.535156 1.8125,-7.390625 0,-2.789062 -0.605469,-5.222656 -1.8125,-7.296875 -1.210938,-2.082031 -3.054688,-3.125 -5.53125,-3.125 -2.5625,0 -4.445312,1.015625 -5.640625,3.046875 -1.1875,2.03125 -1.78125,4.46875 -1.78125,7.3125 0,2.898438 0.59375,5.382812 1.78125,7.453125 1.195313,2.074219 3.078125,3.109375 5.640625,3.109375 z m 0,0"
                   id="path4" /></g></g></g><g
             fill="#1b1b1b"
             fill-opacity="1"
             id="g10"><g
               transform="translate(270.82434,211.01767)"
               id="g9"><g
                 id="g8"><path
                   d="m 18.6875,-28.5625 v 14.84375 c 0,1.636719 0.08203,2.839844 0.25,3.609375 0.164062,0.773437 0.628906,1.390625 1.390625,1.859375 0.769531,0.460938 2.019531,0.6875 3.75,0.6875 0.882813,0 1.796875,-0.09375 2.734375,-0.28125 v 7.5625 C 26.34375,-0.1875 25.40625,-0.0820312 24,0.03125 c -1.398438,0.113281 -2.792969,0.171875 -4.1875,0.171875 -3.648438,0 -6.34375,-0.535156 -8.09375,-1.609375 -1.75,-1.070312 -2.835938,-2.375 -3.25,-3.90625 -0.417969,-1.539062 -0.625,-3.550781 -0.625,-6.03125 V -28.5625 H 1.890625 v -8.46875 H 7.84375 V -49 H 18.6875 v 11.96875 h 8.125 v 8.46875 z m 0,0"
                   id="path7" /></g></g></g><g
             fill="#1b1b1b"
             fill-opacity="1"
             id="g13"><g
               transform="translate(295.32271,211.01767)"
               id="g12"><g
                 id="g11"><path
                   d="m 20.4375,0.625 c -3.96875,0 -7.296875,-0.90625 -9.984375,-2.71875 -2.679687,-1.820312 -4.65625,-4.191406 -5.9375,-7.109375 -1.28125,-2.914063 -1.921875,-6.054687 -1.921875,-9.421875 0,-3.351562 0.640625,-6.488281 1.921875,-9.40625 1.28125,-2.914062 3.257813,-5.269531 5.9375,-7.0625 2.6875,-1.800781 6.015625,-2.703125 9.984375,-2.703125 4.945312,0 8.878906,1.421875 11.796875,4.265625 2.914063,2.84375 4.703125,6.460938 5.359375,10.84375 H 26.953125 c -0.28125,-1.90625 -0.960937,-3.441406 -2.03125,-4.609375 -1.074219,-1.164063 -2.523437,-1.75 -4.34375,-1.75 -2.617187,0 -4.484375,1.015625 -5.609375,3.046875 -1.117188,2.03125 -1.671875,4.492188 -1.671875,7.375 0,2.949219 0.554687,5.4375 1.671875,7.46875 1.125,2.023438 2.992188,3.03125 5.609375,3.03125 1.820313,0 3.269531,-0.59375 4.34375,-1.78125 1.070313,-1.1875 1.75,-2.710938 2.03125,-4.578125 H 37.59375 c -0.65625,4.386719 -2.433594,8 -5.328125,10.84375 C 29.378906,-0.796875 25.4375,0.625 20.4375,0.625 Z m 0,0"
                   id="path10" /></g></g></g><g
             fill="#1b1b1b"
             fill-opacity="1"
             id="g16"><g
               transform="translate(329.76053,211.01767)"
               id="g15"><g
                 id="g14"><path
                   d="M 3.640625,-51.9375 H 14.5625 v 20.296875 h 0.5625 c 0.789062,-1.726563 2.082031,-3.1875 3.875,-4.375 1.800781,-1.1875 3.984375,-1.78125 6.546875,-1.78125 4.851563,0 8.210937,1.53125 10.078125,4.59375 1.875,3.054687 2.8125,6.46875 2.8125,10.25 V 0 H 27.515625 v -21.0625 c 0,-2.425781 -0.539063,-4.335938 -1.609375,-5.734375 -1.074219,-1.40625 -2.6875,-2.109375 -4.84375,-2.109375 -2.148438,0 -3.765625,0.726562 -4.859375,2.171875 -1.09375,1.449219 -1.640625,3.339844 -1.640625,5.671875 V 0 H 3.640625 Z m 0,0"
                   id="path13" /></g></g></g><g
             fill="#1b1b1b"
             fill-opacity="1"
             id="g22"><g
               transform="translate(46.570672,210.528)"
               id="g21"><g
                 id="g20"><path
                   d="m 21.765625,-45.4375 h 1.515625 l -2.796875,9.75 h 5.59375 l -0.640625,2.484375 h -5.671875 l -7.125,24.890625 C 12.003906,-6.1875 11.6875,-4.75 11.6875,-4 c 0,0.960938 0.394531,1.4375 1.1875,1.4375 0.695312,0 1.550781,-0.382812 2.5625,-1.15625 1.007812,-0.769531 1.953125,-1.632812 2.828125,-2.59375 0.882813,-0.96875 1.359375,-1.554688 1.421875,-1.765625 h 1.515625 c -2.085937,3.304687 -4.167969,5.636719 -6.25,7 -2.074219,1.351563 -3.964844,2.03125 -5.671875,2.03125 -0.90625,0 -1.734375,-0.34375 -2.484375,-1.03125 C 6.054688,-0.773438 5.6875,-1.84375 5.6875,-3.28125 c 0,-0.957031 0.316406,-2.632812 0.953125,-5.03125 l 7.125,-24.890625 h -6 l 0.546875,-1.75 c 3.15625,-0.539063 5.734375,-1.753906 7.734375,-3.640625 2,-1.894531 3.90625,-4.175781 5.71875,-6.84375 z m 0,0"
                   id="path19" /></g></g></g><g
             fill="#1b1b1b"
             fill-opacity="1"
             id="g25"><g
               transform="translate(68.248082,210.528)"
               id="g24"><g
                 id="g23"><path
                   d="m 13.765625,-36.5625 c 0.851563,0 1.597656,0.324219 2.234375,0.96875 0.632812,0.636719 0.953125,1.433594 0.953125,2.390625 0,1.125 -0.265625,2.59375 -0.796875,4.40625 l -5.4375,18.71875 c -0.53125,2.136719 -0.796875,3.632813 -0.796875,4.484375 0,0.585938 0.195313,1.046875 0.59375,1.390625 0.40625,0.34375 0.847656,0.515625 1.328125,0.515625 1.488281,0 3.578125,-1.332031 6.265625,-4 2.695313,-2.664062 5.269531,-5.957031 7.71875,-9.875 2.457031,-3.914062 4.164063,-7.609375 5.125,-11.078125 l 2,-7.046875 h 6 L 31.125,-8.484375 c -0.480469,1.929687 -0.71875,3.261719 -0.71875,4 0,0.324219 0.117188,0.621094 0.359375,0.890625 0.238281,0.261719 0.488281,0.390625 0.75,0.390625 0.644531,0 1.5,-0.53125 2.5625,-1.59375 1.070313,-1.070313 2.0625,-2.300781 2.96875,-3.6875 l 1.109375,0.890625 c -1.492188,2.1875 -3.210938,4.164062 -5.15625,5.921875 -1.949219,1.75 -3.855469,2.625 -5.71875,2.625 -1.011719,0 -1.761719,-0.386719 -2.25,-1.15625 C 24.550781,-0.972656 24.3125,-1.8125 24.3125,-2.71875 c 0,-2.132812 0.664062,-5.441406 2,-9.921875 L 27.765625,-17.4375 27.59375,-17.51563 C 24.769531,-12.773438 21.570312,-8.507812 18,-4.71875 14.425781,-0.9375 11.195312,0.953125 8.3125,0.953125 c -3.03125,0 -4.546875,-1.8125 -4.546875,-5.4375 0,-0.90625 0.15625,-2.023437 0.46875,-3.359375 C 4.554688,-9.175781 5.117188,-11.226562 5.921875,-14 L 9.59375,-26.796875 C 9.863281,-27.703125 10.066406,-28.4375 10.203125,-29 c 0.132813,-0.5625 0.203125,-1.109375 0.203125,-1.640625 0,-0.632813 -0.121094,-1.070313 -0.359375,-1.3125 C 9.804688,-32.191406 9.550781,-32.3125 9.28125,-32.3125 8.425781,-32.3125 7.582031,-31.875 6.75,-31 c -0.824219,0.875 -1.792969,2.140625 -2.90625,3.796875 L 2.71875,-28 c 1.125,-2.03125 2.722656,-3.960938 4.796875,-5.796875 2.082031,-1.84375 4.164063,-2.765625 6.25,-2.765625 z m 0,0"
                   id="path22" /></g></g></g><g
             fill="#1b1b1b"
             fill-opacity="1"
             id="g28"><g
               transform="translate(103.28419,210.528)"
               id="g27"><g
                 id="g26"><path
                   d="M 30.875,-7.515625 C 30.394531,-5.753906 30.15625,-4.582031 30.15625,-4 c 0,0.324219 0.09375,0.59375 0.28125,0.8125 0.1875,0.210938 0.414062,0.3125 0.6875,0.3125 0.632812,0 1.566406,-0.546875 2.796875,-1.640625 1.226563,-1.09375 2.375,-2.441406 3.4375,-4.046875 l 1.125,1.046875 c -1.65625,2.398437 -3.578125,4.40625 -5.765625,6.03125 -2.1875,1.625 -4,2.4375 -5.4375,2.4375 -1.011719,0 -1.8125,-0.371094 -2.40625,-1.109375 -0.585938,-0.75 -0.875,-1.601562 -0.875,-2.5625 0,-0.851562 0.101562,-1.769531 0.3125,-2.75 0.21875,-0.988281 0.40625,-1.671875 0.5625,-2.046875 l 1.84375,-6.25 -0.15625,-0.15625 c -2.5625,3.792969 -5.367188,7.21875 -8.40625,10.28125 -3.042969,3.0625 -5.949219,4.59375 -8.71875,4.59375 -2.242188,0 -3.992188,-1.0351562 -5.25,-3.109375 -1.25,-2.082031 -1.875,-4.378906 -1.875,-6.890625 0,-4.050781 1.238281,-8.234375 3.71875,-12.546875 2.488281,-4.320312 5.582031,-7.894531 9.28125,-10.71875 3.707031,-2.832031 7.269531,-4.25 10.6875,-4.25 2.457031,0 4.535156,1.121094 6.234375,3.359375 l 4.40625,-15.359375 c 0.476563,-1.707031 0.71875,-2.929688 0.71875,-3.671875 0,-0.800781 -0.324219,-1.304687 -0.96875,-1.515625 -0.636719,-0.21875 -1.484375,-0.328125 -2.546875,-0.328125 l -2.25,0.07813 -0.07813,-1.203125 12.171875,-2.15625 h 1.4375 z m -15.28125,-20 c -1.917969,2.71875 -3.492188,5.71875 -4.71875,9 -1.21875,3.28125 -1.828125,6.28125 -1.828125,9 0,2.023437 0.359375,3.515625 1.078125,4.484375 0.71875,0.960938 1.691406,1.4375 2.921875,1.4375 2.019531,0 4.414063,-1.492188 7.1875,-4.484375 2.78125,-2.988281 5.179687,-6.546875 7.203125,-10.671875 2.03125,-4.132812 3.046875,-7.78125 3.046875,-10.9375 0,-1.8125 -0.523437,-3.15625 -1.5625,-4.03125 -1.042969,-0.882812 -2.121094,-1.328125 -3.234375,-1.328125 -1.554688,0 -3.226562,0.683594 -5.015625,2.046875 -1.78125,1.367188 -3.476563,3.195312 -5.078125,5.484375 z m 0,0"
                   id="path25" /></g></g></g><g
             fill="#1b1b1b"
             fill-opacity="1"
             id="g31"><g
               transform="translate(138.3203,210.528)"
               id="g30"><g
                 id="g29"><path
                   d="M 19.359375,-27.28125 20.5625,-4 c 3.726562,-4.582031 7.113281,-9.179688 10.15625,-13.796875 3.039062,-4.613281 4.5625,-7.988281 4.5625,-10.125 0,-0.320313 -0.121094,-0.570313 -0.359375,-0.75 -0.242187,-0.1875 -0.625,-0.414063 -1.15625,-0.6875 -0.90625,-0.375 -1.632813,-0.828125 -2.171875,-1.359375 -0.53125,-0.53125 -0.796875,-1.359375 -0.796875,-2.484375 0,-0.957031 0.332031,-1.753906 1,-2.390625 0.664063,-0.644531 1.425781,-0.96875 2.28125,-0.96875 0.957031,0 1.898437,0.402344 2.828125,1.203125 0.9375,0.804687 1.40625,2.324219 1.40625,4.5625 0,2.023437 -0.617188,4.210937 -1.84375,6.5625 -1.21875,2.34375 -3.164062,5.515625 -5.828125,9.515625 -2.9375,4.375 -6.59375,9.292969 -10.96875,14.75 C 15.304688,5.5 11.789062,9.625 9.125,12.40625 6.03125,15.550781 3.226562,17.125 0.71875,17.125 c -0.851562,0 -1.613281,-0.308594 -2.28125,-0.921875 -0.664062,-0.617187 -1,-1.324219 -1,-2.125 0,-1.011719 0.429688,-1.960937 1.28125,-2.84375 0.855469,-0.875 1.8125,-1.3125 2.875,-1.3125 0.476562,0 0.820312,0.128906 1.03125,0.390625 0.21875,0.269531 0.488281,0.671875 0.8125,1.203125 0.375,0.851563 0.773438,1.28125 1.203125,1.28125 0.476563,0 1.539063,-0.667969 3.1875,-2 1.65625,-1.335937 4.085937,-4 7.296875,-8 L 13.84375,-22.3125 c -0.167969,-2.664062 -0.359375,-4.707031 -0.578125,-6.125 -0.210937,-1.414062 -0.671875,-2.550781 -1.390625,-3.40625 -0.71875,-0.851562 -1.824219,-1.28125 -3.3125,-1.28125 -1.011719,0 -1.945312,0.109375 -2.796875,0.328125 l -0.40625,-1.4375 11.84375,-2.328125 c 0.800781,1.230469 1.332031,2.5625 1.59375,4 0.269531,1.4375 0.457031,3.199219 0.5625,5.28125 z m 0,0"
                   id="path28" /></g></g></g></g></g></g></g></svg>
